# xmcd
# Copyright (C) 1995-1998 Ti Kan
#
# Track frame offsets:
#       150
#       13944
#       30245
#
# Disc length: 616 seconds
#
# Revision: 0
# Processed by: cddbd v1.5.2PL0 Copyright (c) Steve Scherf et al.
# Submitted via: CD-Import v1.0
#
DISCID=17026603
DTITLE=Beatrice Egli - Feuer Und Flamme
DYEAR=11
DGENRE=
TTITLE0=Es War Doch Nur Ein Cappuccino
TTITLE1=Freundschaft
TTITLE2=Für Immer Ist Nicht Lang Genug
EXTD=
EXTT0=
EXTT1=
EXTT2=
PLAYORDER=
